# xmcd
#
# Track frame offsets:
#	150
#	10458
#	21817
#	33677
#	46010
#	60611
#	69418
#	77407
#	92301
#	104814
#	115850
#	124383
#	140965
#	146270
#	156577
#	168841
#	179461
#	192513
#	201696
#	214509
#	223059
#	238548
#	248811
#	261879
#	272426
#
# Disc length: 3798 seconds
#
# Revision: 1
# Processed by: cddbd v1.5.1PL2 Copyright (c) Steve Scherf et al.
# Submitted via: audiograbber 1.83.01
#
DISCID=760ed419
DTITLE=Thomas Fraser - Treasure Untold
DYEAR=2005
DGENRE=Country
TTITLE0=Mississippi River Blues
TTITLE1=My Philipino Rose
TTITLE2=Beyond The Reef
TTITLE3=Maybe
TTITLE4=Wedding Bells
TTITLE5=Irish Hornpipe (Traditional Reels)
TTITLE6=Lamp Lighting Time in the Valley
TTITLE7=Treasures Untold
TTITLE8=Blue Yodel No.4 (California Blues)
TTITLE9=When The Catcus Is In Bloom
TTITLE10=My Carolina Sunshine Girl
TTITLE11=Rambling Cowboy
TTITLE12=The Mason's Apron (Traditional Reel)
TTITLE13=Waiting For A Train
TTITLE14=Whistle Blow (I Heard That)
TTITLE15=We'll Never Say Goodbye
TTITLE16=Why Should I Be So Lonely?
TTITLE17=Lonesome Road Blues
TTITLE18=Old Pal Of My Heart
TTITLE19=Farewell To Loch Katrine (Traditional Reel)
TTITLE20=The Mississippi Moon
TTITLE21=Melancholy Blues
TTITLE22=Blue Canadian Rockies
TTITLE23=Winter Winds Blowing
TTITLE24=Bluebird Island
EXTD=Further selections from the Thomas Fraser recordings
EXTT0=
EXTT1=
EXTT2=
EXTT3=
EXTT4=
EXTT5=
EXTT6=
EXTT7=
EXTT8=
EXTT9=
EXTT10=
EXTT11=
EXTT12=
EXTT13=
EXTT14=
EXTT15=
EXTT16=
EXTT17=
EXTT18=
EXTT19=
EXTT20=
EXTT21=
EXTT22=
EXTT23=
EXTT24=
PLAYORDER=
